<mxfile host="Electron" modified="2024-02-02T15:24:19.479Z" agent="Mozilla/5.0 (Windows NT 10.0; Win64; x64) AppleWebKit/537.36 (KHTML, like Gecko) draw.io/23.0.2 Chrome/120.0.6099.109 Electron/28.1.0 Safari/537.36" etag="KuUJo5zVvo3RVED3mvLx" version="23.0.2" type="device">
  <diagram id="R2lEEEUBdFMjLlhIrx00" name="Page-1">
    <mxGraphModel dx="1098" dy="798" grid="1" gridSize="10" guides="1" tooltips="1" connect="1" arrows="1" fold="1" page="1" pageScale="1" pageWidth="850" pageHeight="1100" math="0" shadow="0" extFonts="Permanent Marker^https://fonts.googleapis.com/css?family=Permanent+Marker">
      <root>
        <mxCell id="0" />
        <mxCell id="1" parent="0" />
        <mxCell id="VbbkFvDpL6olopIZG3GA-1" value="" style="rounded=1;whiteSpace=wrap;html=1;fillColor=#1C6936;" vertex="1" parent="1">
          <mxGeometry x="80" y="320" width="120" height="170" as="geometry" />
        </mxCell>
        <mxCell id="VbbkFvDpL6olopIZG3GA-2" value="&lt;b&gt;&lt;font style=&quot;font-size: 13px;&quot;&gt;Client&lt;/font&gt;&lt;/b&gt;&lt;br&gt;&lt;br&gt;&lt;br&gt;&lt;br&gt;&lt;br&gt;&lt;br&gt;&lt;br&gt;&lt;br&gt;" style="rounded=1;whiteSpace=wrap;html=1;fillColor=#1C6936;align=center;" vertex="1" parent="1">
          <mxGeometry x="80" y="320" width="720" height="170" as="geometry" />
        </mxCell>
        <mxCell id="VbbkFvDpL6olopIZG3GA-23" style="edgeStyle=orthogonalEdgeStyle;rounded=0;orthogonalLoop=1;jettySize=auto;html=1;exitX=0;exitY=0.25;exitDx=0;exitDy=0;fillColor=#1ba1e2;strokeColor=#006EAF;" edge="1" parent="1" source="VbbkFvDpL6olopIZG3GA-3" target="VbbkFvDpL6olopIZG3GA-5">
          <mxGeometry relative="1" as="geometry" />
        </mxCell>
        <mxCell id="VbbkFvDpL6olopIZG3GA-3" value="&lt;b&gt;&lt;font style=&quot;font-size: 14px;&quot;&gt;Persistence&lt;/font&gt;&lt;/b&gt;&lt;br&gt;&lt;br&gt;&lt;br&gt;&lt;br&gt;&lt;br&gt;&lt;br&gt;&lt;br&gt;" style="rounded=1;whiteSpace=wrap;html=1;fillColor=#1C6936;align=center;" vertex="1" parent="1">
          <mxGeometry x="560" y="720" width="240" height="170" as="geometry" />
        </mxCell>
        <mxCell id="VbbkFvDpL6olopIZG3GA-4" value="&lt;b&gt;&lt;font style=&quot;font-size: 14px;&quot;&gt;API&lt;/font&gt;&lt;/b&gt;&lt;br&gt;&lt;br&gt;&lt;br&gt;&lt;br&gt;&lt;br&gt;&lt;br&gt;&lt;br&gt;&lt;br&gt;" style="rounded=1;whiteSpace=wrap;html=1;fillColor=#1C6936;align=center;" vertex="1" parent="1">
          <mxGeometry x="80" y="510" width="720" height="170" as="geometry" />
        </mxCell>
        <mxCell id="VbbkFvDpL6olopIZG3GA-5" value="&lt;b&gt;&lt;font style=&quot;font-size: 14px;&quot;&gt;Domain&lt;br&gt;&lt;br&gt;&lt;br&gt;&lt;br&gt;&lt;br&gt;&lt;br&gt;&lt;br&gt;&lt;/font&gt;&lt;/b&gt;" style="rounded=1;whiteSpace=wrap;html=1;fillColor=#1C6936;align=center;labelPosition=center;verticalLabelPosition=middle;verticalAlign=middle;" vertex="1" parent="1">
          <mxGeometry x="80" y="720" width="400" height="170" as="geometry" />
        </mxCell>
        <mxCell id="VbbkFvDpL6olopIZG3GA-6" value="&#xa;&lt;span style=&quot;color: rgb(240, 240, 240); font-family: Helvetica; font-size: 12px; font-style: normal; font-variant-ligatures: normal; font-variant-caps: normal; font-weight: 400; letter-spacing: normal; orphans: 2; text-align: center; text-indent: 0px; text-transform: none; widows: 2; word-spacing: 0px; -webkit-text-stroke-width: 0px; background-color: rgb(27, 29, 30); text-decoration-thickness: initial; text-decoration-style: initial; text-decoration-color: initial; float: none; display: inline !important;&quot;&gt;Repository&lt;/span&gt;&#xa;&#xa;" style="ellipse;whiteSpace=wrap;html=1;" vertex="1" parent="1">
          <mxGeometry x="560" y="775" width="70" height="60" as="geometry" />
        </mxCell>
        <mxCell id="VbbkFvDpL6olopIZG3GA-7" value="&#xa;&lt;span style=&quot;color: rgb(240, 240, 240); font-family: Helvetica; font-size: 12px; font-style: normal; font-variant-ligatures: normal; font-variant-caps: normal; font-weight: 400; letter-spacing: normal; orphans: 2; text-align: center; text-indent: 0px; text-transform: none; widows: 2; word-spacing: 0px; -webkit-text-stroke-width: 0px; background-color: rgb(27, 29, 30); text-decoration-thickness: initial; text-decoration-style: initial; text-decoration-color: initial; float: none; display: inline !important;&quot;&gt;MySQL Database&lt;/span&gt;&#xa;&#xa;" style="ellipse;whiteSpace=wrap;html=1;" vertex="1" parent="1">
          <mxGeometry x="630" y="850" width="90" height="70" as="geometry" />
        </mxCell>
        <mxCell id="VbbkFvDpL6olopIZG3GA-8" value="IRepository" style="ellipse;whiteSpace=wrap;html=1;" vertex="1" parent="1">
          <mxGeometry x="730" y="775" width="70" height="70" as="geometry" />
        </mxCell>
        <mxCell id="VbbkFvDpL6olopIZG3GA-9" value="Factory" style="ellipse;whiteSpace=wrap;html=1;" vertex="1" parent="1">
          <mxGeometry x="90" y="760" width="50" height="50" as="geometry" />
        </mxCell>
        <mxCell id="VbbkFvDpL6olopIZG3GA-10" value="IFactory" style="ellipse;whiteSpace=wrap;html=1;" vertex="1" parent="1">
          <mxGeometry x="90" y="830" width="50" height="50" as="geometry" />
        </mxCell>
        <mxCell id="VbbkFvDpL6olopIZG3GA-11" value="Analysor" style="ellipse;whiteSpace=wrap;html=1;" vertex="1" parent="1">
          <mxGeometry x="180" y="760" width="50" height="50" as="geometry" />
        </mxCell>
        <mxCell id="VbbkFvDpL6olopIZG3GA-12" value="IAnalysor" style="ellipse;whiteSpace=wrap;html=1;" vertex="1" parent="1">
          <mxGeometry x="180" y="830" width="50" height="50" as="geometry" />
        </mxCell>
        <mxCell id="VbbkFvDpL6olopIZG3GA-20" style="edgeStyle=orthogonalEdgeStyle;rounded=0;orthogonalLoop=1;jettySize=auto;html=1;exitX=1;exitY=1;exitDx=0;exitDy=0;entryX=0;entryY=0;entryDx=0;entryDy=0;" edge="1" parent="1" source="VbbkFvDpL6olopIZG3GA-13" target="VbbkFvDpL6olopIZG3GA-3">
          <mxGeometry relative="1" as="geometry" />
        </mxCell>
        <mxCell id="VbbkFvDpL6olopIZG3GA-13" value="APP&lt;br&gt;8080 server" style="rounded=1;whiteSpace=wrap;html=1;" vertex="1" parent="1">
          <mxGeometry x="140" y="575" width="70" height="60" as="geometry" />
        </mxCell>
        <mxCell id="VbbkFvDpL6olopIZG3GA-14" value="Controller&lt;br&gt;@Path..." style="rounded=1;whiteSpace=wrap;html=1;" vertex="1" parent="1">
          <mxGeometry x="500" y="575" width="190" height="95" as="geometry" />
        </mxCell>
        <mxCell id="VbbkFvDpL6olopIZG3GA-16" value="API.js&amp;nbsp;&lt;br&gt;fetch path" style="ellipse;whiteSpace=wrap;html=1;" vertex="1" parent="1">
          <mxGeometry x="560" y="380" width="130" height="80" as="geometry" />
        </mxCell>
        <mxCell id="VbbkFvDpL6olopIZG3GA-17" value="App.jsx&lt;br&gt;5173 server" style="ellipse;whiteSpace=wrap;html=1;" vertex="1" parent="1">
          <mxGeometry x="160" y="380" width="130" height="80" as="geometry" />
        </mxCell>
        <mxCell id="VbbkFvDpL6olopIZG3GA-19" style="edgeStyle=orthogonalEdgeStyle;rounded=0;orthogonalLoop=1;jettySize=auto;html=1;entryX=0.16;entryY=0.012;entryDx=0;entryDy=0;entryPerimeter=0;" edge="1" parent="1" source="VbbkFvDpL6olopIZG3GA-13" target="VbbkFvDpL6olopIZG3GA-5">
          <mxGeometry relative="1" as="geometry" />
        </mxCell>
        <mxCell id="VbbkFvDpL6olopIZG3GA-21" style="edgeStyle=orthogonalEdgeStyle;rounded=0;orthogonalLoop=1;jettySize=auto;html=1;exitX=1;exitY=0.5;exitDx=0;exitDy=0;entryX=0;entryY=0.389;entryDx=0;entryDy=0;entryPerimeter=0;" edge="1" parent="1" source="VbbkFvDpL6olopIZG3GA-13" target="VbbkFvDpL6olopIZG3GA-14">
          <mxGeometry relative="1" as="geometry" />
        </mxCell>
        <mxCell id="VbbkFvDpL6olopIZG3GA-22" style="edgeStyle=orthogonalEdgeStyle;rounded=0;orthogonalLoop=1;jettySize=auto;html=1;exitX=0.75;exitY=1;exitDx=0;exitDy=0;entryX=0.363;entryY=-0.018;entryDx=0;entryDy=0;entryPerimeter=0;fontColor=#8A0000;labelBackgroundColor=none;fillColor=#d80073;strokeColor=#A50040;startSize=11;" edge="1" parent="1" source="VbbkFvDpL6olopIZG3GA-14" target="VbbkFvDpL6olopIZG3GA-3">
          <mxGeometry relative="1" as="geometry">
            <Array as="points">
              <mxPoint x="643" y="695" />
              <mxPoint x="650" y="695" />
              <mxPoint x="650" y="717" />
            </Array>
          </mxGeometry>
        </mxCell>
        <mxCell id="VbbkFvDpL6olopIZG3GA-24" style="edgeStyle=orthogonalEdgeStyle;rounded=0;orthogonalLoop=1;jettySize=auto;html=1;exitX=0.25;exitY=1;exitDx=0;exitDy=0;" edge="1" parent="1" source="VbbkFvDpL6olopIZG3GA-2" target="VbbkFvDpL6olopIZG3GA-14">
          <mxGeometry relative="1" as="geometry" />
        </mxCell>
      </root>
    </mxGraphModel>
  </diagram>
</mxfile>
